<svg xmlns="http://www.w3.org/2000/svg" viewBox="0 0 256 256" role="img" aria-labelledby="title desc">
  <title id="title">Emberwake icon</title>
  <desc id="desc">A fiery eclipse crest for Emberwake.</desc>
  <defs>
    <linearGradient id="emberwake-bg" x1="0" y1="0" x2="1" y2="1">
      <stop offset="0%" stop-color="#120d1a"/>
      <stop offset="55%" stop-color="#1e1630"/>
      <stop offset="100%" stop-color="#072635"/>
    </linearGradient>
    <linearGradient id="emberwake-core" x1="0" y1="0" x2="1" y2="1">
      <stop offset="0%" stop-color="#ffb35c"/>
      <stop offset="45%" stop-color="#ff7b3f"/>
      <stop offset="100%" stop-color="#f3427d"/>
    </linearGradient>
  </defs>
  <rect width="256" height="256" rx="56" fill="url(#emberwake-bg)"/>
  <circle cx="128" cy="128" r="70" fill="#09070f"/>
  <path d="M128 44c-27 0-52 12-69 33 19-9 41-9 57 1 22 14 29 43 17 66-9 18-27 30-48 33 13 10 30 15 47 15 47 0 84-37 84-84s-37-84-84-84Z" fill="url(#emberwake-core)"/>
  <path d="M128 82c-18 10-31 28-34 49-2 16 2 32 12 45 7-3 13-8 18-13 15-15 22-38 16-59-2-8-6-16-12-22Z" fill="#ffe3b8" opacity="0.95"/>
  <circle cx="174" cy="84" r="10" fill="#4ce2ff" opacity="0.95"/>
</svg>
